<svg version="1.1" viewBox="0.0 0.0 763.1994750656168 128.64041994750656" fill="none" stroke="none" stroke-linecap="square" stroke-miterlimit="10" xmlns:xlink="http://www.w3.org/1999/xlink" xmlns="http://www.w3.org/2000/svg"><clipPath id="p.0"><path d="m0 0l763.19946 0l0 128.64043l-763.19946 0l0 -128.64043z" clip-rule="nonzero"/></clipPath><g clip-path="url(#p.0)"><path fill="#000000" fill-opacity="0.0" d="m0 0l763.19946 0l0 128.64043l-763.19946 0z" fill-rule="evenodd"/><path fill="#000000" d="m96.10235 127.23622l-84.88189 0l0 -24.0l84.88189 0z" fill-rule="evenodd"/><path fill="#000000" d="m95.69029 55.23622l-84.47244 0l0 -24.0l84.47244 0z" fill-rule="evenodd"/><path fill="#000000" d="m24.00061 45.44882l0 69.32283l-24.0 0l0 -69.32283z" fill-rule="evenodd"/><path fill="#000000" d="m24.00061 115.23622c0 6.6274185 -5.3725834 12.0 -12.000001 12.0c-3.182598 0 -6.2348447 -1.2642822 -8.485281 -3.514717c-2.2504368 -2.2504425 -3.5147188 -5.3026886 -3.5147188 -8.485283c0 -6.6274185 5.372583 -12.0 12.0 -12.0c6.6274176 0 12.000001 5.3725815 12.000001 12.0z" fill-rule="evenodd"/><path fill="#000000" d="m24.00061 43.23622c0 6.6274147 -5.3725834 12.0 -12.000001 12.0c-3.182598 0 -6.2348447 -1.2642822 -8.485281 -3.514721c-2.2504368 -2.2504349 -3.5147188 -5.302681 -3.5147188 -8.485279c0 -6.6274185 5.372583 -12.0 12.0 -12.0c6.6274176 0 12.000001 5.3725815 12.000001 12.0z" fill-rule="evenodd"/><path fill="#000000" d="m136.10236 0.060367454l0 127.68504l-23.999992 0l0 -127.68504z" fill-rule="evenodd"/><path fill="#000000" d="m236.29668 128.11023l-72.97638 0l0 -23.999992l72.97638 0z" fill-rule="evenodd"/><path fill="#000000" d="m248.0971 45.553806l0 70.078735l-24.0 0l0 -70.078735z" fill-rule="evenodd"/><path fill="#000000" d="m236.29659 56.110237l-72.97638 0l0 -24.0l72.97638 0z" fill-rule="evenodd"/><path fill="#000000" d="m248.09772 116.11024c0 6.6274185 -5.372574 11.999992 -12.0 11.999992c-3.1825867 0 -6.234833 -1.2642746 -8.485275 -3.5147095c-2.2504425 -2.2504425 -3.5147247 -5.3026886 -3.5147247 -8.485283c0 -6.6274185 5.372589 -12.0 12.0 -12.0c6.627426 0 12.0 5.3725815 12.0 12.0z" fill-rule="evenodd"/><path fill="#000000" d="m248.09772 44.110237c0 6.6274147 -5.372574 12.0 -12.0 12.0c-3.1825867 0 -6.234833 -1.2642822 -8.485275 -3.514721c-2.2504425 -2.2504349 -3.5147247 -5.302681 -3.5147247 -8.485279c0 -6.6274185 5.372589 -12.0 12.0 -12.0c6.627426 0 12.0 5.3725815 12.0 12.0z" fill-rule="evenodd"/><path fill="#000000" d="m176.10297 46.322834l0 69.32283l-24.0 0l0 -69.32283z" fill-rule="evenodd"/><path fill="#000000" d="m176.10297 116.11024c0 6.6274185 -5.372574 11.999992 -12.0 11.999992c-3.1825867 0 -6.234833 -1.2642746 -8.485275 -3.5147095c-2.2504425 -2.2504425 -3.5147247 -5.3026886 -3.5147247 -8.485283c0 -6.6274185 5.372589 -12.0 12.0 -12.0c6.627426 0 12.0 5.3725815 12.0 12.0z" fill-rule="evenodd"/><path fill="#000000" d="m176.10297 44.110237c0 6.6274147 -5.372574 12.0 -12.0 12.0c-3.1825867 0 -6.234833 -1.2642822 -8.485275 -3.514721c-2.2504425 -2.2504349 -3.5147247 -5.302681 -3.5147247 -8.485279c0 -6.6274185 5.372589 -12.0 12.0 -12.0c6.627426 0 12.0 5.3725815 12.0 12.0z" fill-rule="evenodd"/><path fill="#000000" d="m287.51443 32.110237l0 95.99999l-24.0 0l0 -95.99999z" fill-rule="evenodd"/><path fill="#000000" d="m399.2047 56.110237l-84.47244 0l0 -24.0l84.47244 0z" fill-rule="evenodd"/><path fill="#000000" d="m327.51505 44.110237c0 6.6274147 -5.372589 12.0 -12.0 12.0c-3.1825867 0 -6.234833 -1.2642822 -8.485291 -3.514721c-2.2504272 -2.2504349 -3.5147095 -5.302681 -3.5147095 -8.485279c0 -6.6274185 5.372589 -12.0 12.0 -12.0c6.627411 0 12.0 5.3725815 12.0 12.0z" fill-rule="evenodd"/><path fill="#000000" d="m387.5537 92.11024l-72.97638 0l0 -24.0l72.97638 0z" fill-rule="evenodd"/><path fill="#000000" d="m327.36 80.11024c0 6.6274185 -5.3725586 12.0 -12.0 12.0c-3.1825867 0 -6.234833 -1.2642822 -8.48526 -3.514717c-2.2504578 -2.2504425 -3.51474 -5.3026886 -3.51474 -8.485283c0 -6.6274185 5.372589 -12.0 12.0 -12.0c6.6274414 0 12.0 5.3725815 12.0 12.0z" fill-rule="evenodd"/><path fill="#000000" d="m327.36 43.608925l0 37.039368l-24.0 0l0 -37.039368z" fill-rule="evenodd"/><path fill="#000000" d="m440.19946 0l0 115.30708l-24.0 0l0 -115.30708z" fill-rule="evenodd"/><path fill="#000000" d="m471.63507 128.11023l-46.456696 0l0 -23.999992l46.456696 0z" fill-rule="evenodd"/><path fill="#000000" d="m471.3665 56.110237l-55.055115 0l0 -24.0l55.055115 0z" fill-rule="evenodd"/><path fill="#000000" d="m487.8937 115.22068l0 -72.661415l24.0 0l0 72.661415z" fill-rule="evenodd"/><path fill="#000000" d="m495.96326 67.68131l75.87402 0l0 24.0l-75.87402 0z" fill-rule="evenodd"/><path fill="#000000" d="m500.10236 103.68l83.52759 0l0 24.0l-83.52759 0z" fill-rule="evenodd"/><path fill="#000000" d="m487.68 115.68c0 -6.6274185 5.372589 -12.0 12.0 -12.0c3.1826172 0 6.2348633 1.2642822 8.485291 3.514717c2.2504272 2.2504349 3.5147095 5.302681 3.5147095 8.485283c0 6.6274185 -5.372589 12.0 -12.0 12.0c-6.627411 0 -12.0 -5.3725815 -12.0 -12.0z" fill-rule="evenodd"/><path fill="#000000" d="m654.0236 55.935905l-41.19684 0l0 -24.0l41.19684 0z" fill-rule="evenodd"/><path fill="#000000" d="m623.62994 43.107063l0 85.10236l-24.0 0l0 -85.10236z" fill-rule="evenodd"/><path fill="#000000" d="m623.63055 43.68c0 6.6274185 -5.3726196 12.0 -12.0 12.0c-3.1826172 0 -6.2348633 -1.2642822 -8.485291 -3.514717c-2.2504272 -2.2504387 -3.5147095 -5.302685 -3.5147095 -8.485283c0 -6.6274185 5.3725586 -12.0 12.0 -12.0c6.6273804 0 12.0 5.3725815 12.0 12.0z" fill-rule="evenodd"/><path fill="#000000" d="m416.52756 116.11024c0 -6.6274185 5.3725586 -12.0 12.0 -12.0c3.1825867 0 6.234833 1.2642822 8.48526 3.514717c2.2504578 2.2504349 3.51474 5.302681 3.51474 8.485283c0 6.6274185 -5.372589 11.999992 -12.0 11.999992c-6.6274414 0 -12.0 -5.372574 -12.0 -11.999992z" fill-rule="evenodd"/><path fill="#000000" d="m571.8294 55.68l-72.97638 0l0 -24.0l72.97638 0z" fill-rule="evenodd"/><path fill="#000000" d="m583.63055 43.68c0 6.6274185 -5.3726196 12.0 -12.0 12.0c-3.1826172 0 -6.2348633 -1.2642822 -8.485291 -3.514717c-2.2504272 -2.2504387 -3.5147095 -5.302685 -3.5147095 -8.485283c0 -6.6274185 5.3725586 -12.0 12.0 -12.0c6.6273804 0 12.0 5.3725815 12.0 12.0z" fill-rule="evenodd"/><path fill="#000000" d="m511.63577 43.68c0 6.6274185 -5.372589 12.0 -12.0 12.0c-3.1825867 0 -6.234833 -1.2642822 -8.48526 -3.514717c-2.2504578 -2.2504387 -3.51474 -5.302685 -3.51474 -8.485283c0 -6.6274185 5.372589 -12.0 12.0 -12.0c6.627411 0 12.0 5.3725815 12.0 12.0z" fill-rule="evenodd"/><path fill="#000000" d="m583.58795 45.019894l0 35.370075l-24.0 0l0 -35.370075z" fill-rule="evenodd"/><path fill="#000000" d="m583.68 79.68c0 6.6274185 -5.3725586 12.0 -12.0 12.0c-3.1826172 0 -6.2348633 -1.2642822 -8.485291 -3.514717c-2.2504272 -2.2504349 -3.5147095 -5.3026886 -3.5147095 -8.485283c0 -6.6274185 5.3726196 -12.0 12.0 -12.0c6.6274414 0 12.0 5.3725815 12.0 12.0z" fill-rule="evenodd"/><path fill="#000000" d="m303.9335 104.11024l84.47244 0l0 23.999992l-84.47244 0z" fill-rule="evenodd"/><path fill="#000000" d="m375.62317 116.11024c0 -6.6274185 5.372589 -12.0 12.0 -12.0c3.1825867 0 6.234833 1.2642822 8.485291 3.514717c2.2504272 2.2504349 3.5147095 5.302681 3.5147095 8.485283c0 6.6274185 -5.372589 11.999992 -12.0 11.999992c-6.627411 0 -12.0 -5.372574 -12.0 -11.999992z" fill-rule="evenodd"/><path fill="#000000" d="m375.77823 80.11024c0 -6.6274185 5.3725586 -12.0 12.0 -12.0c3.1825867 0 6.234833 1.2642822 8.48526 3.514717c2.2504578 2.2504349 3.51474 5.302681 3.51474 8.485283c0 6.6274185 -5.372589 12.0 -12.0 12.0c-6.6274414 0 -12.0 -5.3725815 -12.0 -12.0z" fill-rule="evenodd"/><path fill="#000000" d="m375.77823 116.61155l0 -37.039368l24.0 0l0 37.039368z" fill-rule="evenodd"/><path fill="#000000" d="m763.04474 55.935905l-84.47247 0l0 -24.0l84.47247 0z" fill-rule="evenodd"/><path fill="#000000" d="m691.35504 43.935905c0 6.6274185 -5.3725586 12.0 -12.0 12.0c-3.1826172 0 -6.2348633 -1.2642822 -8.485291 -3.514717c-2.2504272 -2.2504387 -3.5147095 -5.302685 -3.5147095 -8.485283c0 -6.6274185 5.3725586 -12.0 12.0 -12.0c6.6274414 0 12.0 5.3725815 12.0 12.0z" fill-rule="evenodd"/><path fill="#000000" d="m751.3937 91.935905l-72.97638 0l0 -24.0l72.97638 0z" fill-rule="evenodd"/><path fill="#000000" d="m691.2 79.935905c0 6.6274185 -5.3726196 12.0 -12.0 12.0c-3.1826172 0 -6.2348633 -1.2642822 -8.485291 -3.514717c-2.2504272 -2.2504349 -3.5147095 -5.3026886 -3.5147095 -8.485283c0 -6.6274185 5.3725586 -12.0 12.0 -12.0c6.6273804 0 12.0 5.3725815 12.0 12.0z" fill-rule="evenodd"/><path fill="#000000" d="m691.2 43.434593l0 37.039368l-24.0 0l0 -37.039368z" fill-rule="evenodd"/><path fill="#000000" d="m667.7735 103.935905l84.47241 0l0 24.0l-84.47241 0z" fill-rule="evenodd"/><path fill="#000000" d="m739.4632 115.935905c0 -6.6274185 5.3725586 -12.0 12.0 -12.0c3.1825562 0 6.2348022 1.2642822 8.4852295 3.514717c2.2504883 2.2504349 3.5147705 5.3026886 3.5147705 8.485283c0 6.6274185 -5.3726196 12.0 -12.0 12.0c-6.6274414 0 -12.0 -5.3725815 -12.0 -12.0z" fill-rule="evenodd"/><path fill="#000000" d="m739.6182 79.935905c0 -6.6274185 5.3725586 -12.0 12.0 -12.0c3.1826172 0 6.2348633 1.2642822 8.485291 3.514717c2.2504272 2.2504349 3.5147095 5.3026886 3.5147095 8.485283c0 6.6274185 -5.3726196 12.0 -12.0 12.0c-6.6274414 0 -12.0 -5.3725815 -12.0 -12.0z" fill-rule="evenodd"/><path fill="#000000" d="m739.6182 116.43722l0 -37.039368l24.0 0l0 37.039368z" fill-rule="evenodd"/><path fill="#000000" d="m263.51443 0.11023622l24.0 0l0 24.0l-24.0 0z" fill-rule="evenodd"/></g></svg>